<svg width="460" height="354" viewBox="0 0 460 354" fill="none" xmlns="http://www.w3.org/2000/svg">
<g clip-path="url(#clip0)">
<path d="M105.919 244.989L141.534 188.894L61.7735 138.097L20.5831 202.973L86.5551 244.989H105.919Z" fill="#F0F0F0"/>
<path d="M156.389 262.488H68.1694V244.702H156.389V262.488ZM69.3151 261.34H155.243V245.849H69.3151V261.34Z" fill="#3F3D56"/>
<path d="M145.504 259.332C148.668 259.332 151.233 256.764 151.233 253.595C151.233 250.426 148.668 247.857 145.504 247.857C142.341 247.857 139.776 250.426 139.776 253.595C139.776 256.764 142.341 259.332 145.504 259.332Z" fill="#5821C4"/>
<path d="M129.465 259.332C132.628 259.332 135.193 256.764 135.193 253.595C135.193 250.426 132.628 247.857 129.465 247.857C126.301 247.857 123.736 250.426 123.736 253.595C123.736 256.764 126.301 259.332 129.465 259.332Z" fill="#5821C4"/>
<path d="M113.425 259.332C116.588 259.332 119.153 256.764 119.153 253.595C119.153 250.426 116.588 247.857 113.425 247.857C110.261 247.857 107.696 250.426 107.696 253.595C107.696 256.764 110.261 259.332 113.425 259.332Z" fill="#5821C4"/>
<path d="M97.3848 259.332C100.549 259.332 103.113 256.764 103.113 253.595C103.113 250.426 100.549 247.857 97.3848 247.857C94.221 247.857 91.6563 250.426 91.6563 253.595C91.6563 256.764 94.221 259.332 97.3848 259.332Z" fill="#5821C4"/>
<path d="M81.345 259.332C84.5087 259.332 87.0735 256.764 87.0735 253.595C87.0735 250.426 84.5087 247.857 81.345 247.857C78.1812 247.857 75.6164 250.426 75.6164 253.595C75.6164 256.764 78.1812 259.332 81.345 259.332Z" fill="#5821C4"/>
<path d="M261.22 64.8331V21.2285H282.989V0H176.438V106.716H267.522V96.2825C267.522 94.3375 267.904 92.4116 268.647 90.6146C269.391 88.8177 270.48 87.185 271.853 85.8096C273.226 84.4343 274.856 83.3434 276.651 82.5991C278.445 81.8547 280.368 81.4716 282.31 81.4716H282.989V64.8331H261.22Z" fill="#F0F0F0"/>
<path d="M379.228 275.397H308.194V290.314H379.228V275.397Z" fill="#5821C4"/>
<path d="M394.695 201.958H290.436V215.728H394.695V201.958Z" fill="#F0F0F0"/>
<path d="M445.679 352.853H0V354H445.679V352.853Z" fill="#3F3D56"/>
<path d="M412.56 354H282.31C278.237 353.995 274.333 352.373 271.453 349.489C268.573 346.605 266.954 342.694 266.949 338.615V96.2825C266.954 92.2037 268.573 88.2932 271.453 85.4091C274.333 82.5249 278.237 80.9025 282.31 80.8979H412.56C416.632 80.9025 420.536 82.5249 423.416 85.4091C426.296 88.2932 427.916 92.2037 427.92 96.2825V338.615C427.916 342.694 426.296 346.605 423.416 349.489C420.536 352.373 416.632 353.995 412.56 354ZM282.31 82.0454C278.541 82.0497 274.928 83.551 272.263 86.2201C269.598 88.8891 268.099 92.5079 268.095 96.2825V338.615C268.099 342.39 269.598 346.009 272.263 348.678C274.928 351.347 278.541 352.848 282.31 352.853H412.56C416.328 352.848 419.941 351.347 422.606 348.678C425.271 346.009 426.77 342.39 426.775 338.615V96.2825C426.77 92.5079 425.271 88.8891 422.606 86.2201C419.941 83.551 416.328 82.0497 412.56 82.0454H282.31Z" fill="#3F3D56"/>
<path d="M331.968 92.3728C331.288 92.3728 330.623 92.1709 330.058 91.7926C329.493 91.4144 329.052 90.8767 328.792 90.2477C328.532 89.6187 328.464 88.9265 328.597 88.2587C328.729 87.5909 329.057 86.9775 329.537 86.4961C330.018 86.0147 330.63 85.6868 331.297 85.554C331.964 85.4212 332.655 85.4893 333.283 85.7499C333.911 86.0104 334.448 86.4517 334.825 87.0178C335.203 87.5839 335.405 88.2494 335.405 88.9303C335.404 89.843 335.041 90.718 334.397 91.3634C333.753 92.0088 332.879 92.3718 331.968 92.3728ZM331.968 86.6353C331.514 86.6353 331.071 86.7699 330.695 87.0221C330.318 87.2743 330.024 87.6327 329.851 88.0521C329.677 88.4714 329.632 88.9329 329.72 89.378C329.809 89.8232 330.027 90.2321 330.347 90.5531C330.668 90.8741 331.076 91.0926 331.521 91.1812C331.965 91.2697 332.426 91.2243 332.845 91.0506C333.263 90.8769 333.621 90.5827 333.873 90.2053C334.125 89.8279 334.259 89.3842 334.259 88.9303C334.258 88.3218 334.017 87.7385 333.587 87.3082C333.158 86.878 332.575 86.636 331.968 86.6353Z" fill="#3F3D56"/>
<path d="M365.766 88.3566H340.56V89.5041H365.766V88.3566Z" fill="#3F3D56"/>
<path d="M417.609 97.5365V143.436C405.455 143.435 393.798 138.599 385.204 129.992C376.61 121.384 371.781 109.71 371.781 97.5365H417.609Z" fill="#5821C4"/>
<path d="M418.182 338.509H276.687V96.9627H418.182V338.509ZM277.833 337.361H417.036V98.1102H277.833V337.361Z" fill="#3F3D56"/>
<path opacity="0.1" d="M384.384 140.567C392.926 140.567 399.851 133.632 399.851 125.076C399.851 116.521 392.926 109.585 384.384 109.585C375.841 109.585 368.917 116.521 368.917 125.076C368.917 133.632 375.841 140.567 384.384 140.567Z" fill="black"/>
<path d="M382.092 142.288C390.634 142.288 397.559 135.353 397.559 126.797C397.559 118.242 390.634 111.306 382.092 111.306C373.55 111.306 366.625 118.242 366.625 126.797C366.625 135.353 373.55 142.288 382.092 142.288Z" fill="#5821C4"/>
<path d="M304.757 106.716H282.989V114.749H304.757V106.716Z" fill="#3F3D56"/>
<path d="M316.787 183.024H295.019V191.057H316.787V183.024Z" fill="#3F3D56"/>
<path d="M400.423 212.859H295.019V197.942H400.423V212.859ZM296.164 211.712H399.278V199.089H296.164V211.712Z" fill="#3F3D56"/>
<path d="M394.695 245.562H290.436V259.332H394.695V245.562Z" fill="#F0F0F0"/>
<path d="M316.787 226.629H295.019V234.661H316.787V226.629Z" fill="#3F3D56"/>
<path d="M400.423 256.464H295.019V241.546H400.423V256.464ZM296.164 255.316H399.278V242.694H296.164V255.316Z" fill="#3F3D56"/>
<path d="M383.811 286.872H311.631V270.807H383.811V286.872ZM312.777 285.724H382.665V271.955H312.777V285.724Z" fill="#3F3D56"/>
<path d="M397.559 207.122C397.559 208.303 397.195 209.455 396.517 210.421C395.838 211.388 394.879 212.121 393.769 212.52C392.659 212.92 391.454 212.967 390.316 212.655C389.179 212.343 388.165 211.687 387.414 210.776L387.408 210.771C386.861 210.105 386.47 209.325 386.265 208.488C386.06 207.65 386.046 206.777 386.224 205.934C386.402 205.09 386.768 204.298 387.294 203.615C387.82 202.933 388.493 202.378 389.263 201.992C390.033 201.605 390.879 201.398 391.74 201.385C392.601 201.372 393.454 201.553 394.235 201.915C395.016 202.277 395.706 202.811 396.252 203.477C396.799 204.143 397.189 204.924 397.393 205.762C397.393 205.763 397.393 205.763 397.393 205.764C397.394 205.765 397.394 205.765 397.395 205.766C397.395 205.766 397.396 205.767 397.397 205.767C397.397 205.767 397.398 205.768 397.399 205.768C397.505 206.211 397.558 206.665 397.559 207.122Z" fill="#5821C4"/>
<path opacity="0.1" d="M397.559 207.122C397.559 208.303 397.195 209.455 396.517 210.421C395.838 211.388 394.879 212.121 393.769 212.52C392.659 212.92 391.454 212.967 390.316 212.655C389.179 212.343 388.165 211.687 387.414 210.776L387.408 210.771C387.302 210.327 387.249 209.873 387.248 209.417C387.248 208.235 387.612 207.083 388.29 206.117C388.969 205.151 389.928 204.418 391.038 204.018C392.148 203.618 393.353 203.571 394.491 203.883C395.628 204.195 396.642 204.851 397.393 205.762C397.393 205.763 397.393 205.763 397.393 205.764C397.394 205.765 397.394 205.765 397.395 205.766C397.395 205.766 397.396 205.767 397.397 205.767C397.397 205.767 397.398 205.768 397.399 205.768C397.505 206.211 397.558 206.666 397.559 207.122Z" fill="black"/>
<path d="M394.122 216.301C397.286 216.301 399.851 213.733 399.851 210.564C399.851 207.395 397.286 204.827 394.122 204.827C390.958 204.827 388.394 207.395 388.394 210.564C388.394 213.733 390.958 216.301 394.122 216.301Z" fill="#5821C4"/>
<path d="M397.559 250.726C397.559 251.907 397.195 253.06 396.517 254.026C395.838 254.992 394.879 255.725 393.769 256.125C392.659 256.525 391.454 256.572 390.316 256.26C389.179 255.947 388.165 255.291 387.414 254.381L387.408 254.375C386.861 253.71 386.47 252.929 386.265 252.092C386.06 251.255 386.046 250.382 386.224 249.538C386.402 248.695 386.768 247.902 387.294 247.22C387.82 246.537 388.493 245.982 389.263 245.596C390.033 245.21 390.879 245.003 391.74 244.989C392.601 244.976 393.454 245.157 394.235 245.52C395.016 245.882 395.706 246.416 396.252 247.082C396.799 247.748 397.189 248.529 397.393 249.366C397.393 249.367 397.393 249.368 397.393 249.369C397.394 249.369 397.394 249.37 397.395 249.37C397.395 249.371 397.396 249.371 397.397 249.372C397.397 249.372 397.398 249.372 397.399 249.372C397.505 249.816 397.558 250.27 397.559 250.726Z" fill="#5821C4"/>
<path opacity="0.1" d="M397.559 250.726C397.559 251.907 397.195 253.06 396.517 254.026C395.838 254.992 394.879 255.725 393.769 256.125C392.659 256.525 391.454 256.572 390.316 256.26C389.179 255.947 388.165 255.291 387.414 254.381L387.408 254.375C387.302 253.932 387.249 253.477 387.248 253.021C387.248 251.84 387.612 250.688 388.29 249.721C388.969 248.755 389.928 248.022 391.038 247.622C392.148 247.223 393.353 247.175 394.491 247.488C395.628 247.8 396.642 248.456 397.393 249.366C397.393 249.367 397.393 249.368 397.393 249.369C397.394 249.369 397.394 249.37 397.395 249.37C397.395 249.371 397.396 249.371 397.397 249.372C397.397 249.372 397.398 249.372 397.399 249.372C397.505 249.816 397.558 250.27 397.559 250.726Z" fill="black"/>
<path d="M394.122 259.906C397.286 259.906 399.851 257.337 399.851 254.169C399.851 251 397.286 248.431 394.122 248.431C390.958 248.431 388.394 251 388.394 254.169C388.394 257.337 390.958 259.906 394.122 259.906Z" fill="#5821C4"/>
<path d="M297.883 27.5397H268.095V57.3744H297.883V27.5397Z" fill="#F0F0F0"/>
<path d="M384.384 49.342C383.024 49.342 381.695 48.9382 380.564 48.1817C379.434 47.4251 378.553 46.3499 378.033 45.0918C377.512 43.8337 377.376 42.4494 377.641 41.1139C377.907 39.7783 378.561 38.5516 379.523 37.5887C380.484 36.6258 381.709 35.9701 383.042 35.7044C384.376 35.4388 385.758 35.5751 387.014 36.0962C388.27 36.6173 389.344 37.4998 390.099 38.632C390.855 39.7642 391.258 41.0953 391.258 42.4571C391.256 44.2824 390.531 46.0324 389.242 47.3232C387.953 48.6139 386.206 49.3399 384.384 49.342ZM384.384 36.7196C383.251 36.7196 382.143 37.0561 381.201 37.6866C380.259 38.317 379.525 39.2131 379.091 40.2614C378.658 41.3098 378.544 42.4634 378.765 43.5764C378.986 44.6893 379.532 45.7116 380.333 46.514C381.134 47.3164 382.155 47.8629 383.266 48.0842C384.377 48.3056 385.529 48.192 386.576 47.7578C387.623 47.3235 388.517 46.5881 389.147 45.6446C389.776 44.7011 390.112 43.5918 390.112 42.4571C390.11 40.9359 389.506 39.4776 388.432 38.402C387.358 37.3264 385.902 36.7214 384.384 36.7196Z" fill="#3F3D56"/>
<path d="M233.151 145.157H218.257V130.24H233.151V145.157ZM219.402 144.01H232.005V131.387H219.402V144.01Z" fill="#3F3D56"/>
<path d="M460 256.464H445.106V241.546H460V256.464ZM446.252 255.316H458.854V242.694H446.252V255.316Z" fill="#3F3D56"/>
<path d="M166.129 156.441L168.684 157.819L177.382 162.514L191.422 170.091L199.605 154.886C200.375 153.457 200.857 151.89 201.022 150.275C201.188 148.66 201.033 147.027 200.568 145.472C200.103 143.916 199.336 142.468 198.311 141.21C197.286 139.951 196.024 138.908 194.596 138.139C191.544 136.488 188.048 135.851 184.612 136.318C181.175 136.785 177.975 138.332 175.473 140.737L175.469 140.742C174.238 141.926 173.199 143.295 172.39 144.801L166.129 156.441Z" fill="#2F2E41"/>
<path d="M204.451 311.507L202.736 330.405L196.303 331.264L192.014 309.788L204.451 311.507Z" fill="#FFB8B8"/>
<path d="M194.587 331.265C194.587 331.265 202.735 326.969 204.451 330.405C204.451 330.405 203.164 340.714 208.311 342.003C213.457 343.291 215.601 352.311 208.311 353.17C201.02 354.029 196.303 351.452 193.73 351.452C191.156 351.452 193.73 342.432 193.73 342.432L194.587 331.265Z" fill="#2F2E41"/>
<path d="M152.56 311.507L154.275 330.405L160.708 331.264L164.996 309.788L152.56 311.507Z" fill="#FFB8B8"/>
<path d="M162.423 331.265C162.423 331.265 154.275 326.969 152.56 330.405C152.56 330.405 153.846 340.714 148.7 342.003C143.554 343.291 141.409 352.311 148.7 353.17C155.99 354.029 160.708 351.452 163.281 351.452C165.854 351.452 163.281 342.432 163.281 342.432L162.423 331.265Z" fill="#2F2E41"/>
<path d="M187.726 159.885C193.884 159.885 198.876 154.886 198.876 148.718C198.876 142.55 193.884 137.55 187.726 137.55C181.568 137.55 176.575 142.55 176.575 148.718C176.575 154.886 181.568 159.885 187.726 159.885Z" fill="#FFB8B8"/>
<path d="M152.131 170.624L161.137 184.798L171.858 183.939L189.441 185.227C189.441 185.227 191.101 181.903 192.456 178.668C193.198 177.053 193.768 175.365 194.158 173.63C194.587 170.624 188.583 167.617 188.583 167.617C188.583 167.617 188.347 167.574 187.953 167.479C187.43 167.355 186.623 167.149 185.74 166.848C183.746 166.169 181.348 165.018 180.864 163.322C180.006 160.315 186.439 156.02 186.439 156.02L178.72 148.718C178.72 148.718 171.862 158.258 163.534 160.431C163.051 160.559 162.561 160.659 162.067 160.732C162.042 160.736 162.02 160.74 161.994 160.745C152.988 162.033 152.131 170.624 152.131 170.624Z" fill="#FFB8B8"/>
<path d="M156.848 166.758L152.131 170.624C152.131 170.624 148.271 189.093 149.558 194.247C150.844 199.401 149.129 204.126 149.129 204.985C149.129 205.844 145.269 238.058 145.269 238.058C145.269 238.058 137.55 255.239 145.698 253.521C153.846 251.803 150.844 234.622 150.844 234.622L160.708 204.556V179.214L156.848 166.758Z" fill="#FFB8B8"/>
<path d="M190.728 170.194L194.158 172.771L195.874 208.851L208.739 239.776C208.739 239.776 218.174 254.81 212.17 255.239C206.166 255.669 202.307 239.776 202.307 239.776L190.728 210.139L189.012 181.362L190.728 170.194Z" fill="#FFB8B8"/>
<path d="M169.285 172.771C169.285 172.771 177.862 178.784 191.585 176.637C191.585 176.637 195.445 184.368 193.301 188.663C191.156 192.959 195.874 203.267 196.731 204.556C197.589 205.844 207.453 232.475 210.884 261.252C214.314 290.03 223.749 309.788 215.601 312.366C207.453 314.943 190.728 317.949 189.012 315.372C187.297 312.795 184.724 248.796 184.724 248.796L180.006 273.279C180.006 273.279 186.439 314.943 181.722 315.802C177.004 316.661 147.413 314.084 148.271 308.929C149.129 303.775 157.706 276.715 157.706 276.715C157.706 276.715 157.277 222.596 165.854 212.287C165.854 212.287 169.285 206.703 164.567 199.401C159.85 192.1 160.279 180.503 160.279 180.503C160.279 180.503 163.71 180.503 169.285 172.771Z" fill="#2F2E41"/>
<path d="M162.067 160.731L169.285 176.637L171 175.778L163.534 160.431L162.067 160.731Z" fill="#2F2E41"/>
<path d="M185.74 166.848L191.156 178.784L192.456 178.668L192.014 176.637L187.953 167.479C187.43 167.355 186.623 167.149 185.74 166.848Z" fill="#2F2E41"/>
<path d="M168.684 157.819C169.097 159.148 169.892 160.326 170.969 161.204C172.046 162.082 173.359 162.623 174.742 162.758C176.124 162.893 177.516 162.616 178.742 161.962C179.969 161.308 180.975 160.306 181.636 159.082C176.211 151.978 180.864 147.515 189.677 144.139C190.341 142.905 190.623 141.501 190.488 140.106C190.353 138.711 189.806 137.388 188.918 136.305C186.489 135.994 184.021 136.23 181.695 136.997C179.368 137.764 177.243 139.042 175.473 140.737L175.469 140.742L169.208 152.373C168.762 153.2 168.486 154.108 168.396 155.043C168.306 155.979 168.404 156.923 168.684 157.819Z" fill="#2F2E41"/>
<path d="M181.078 152.584C181.907 152.584 182.579 151.43 182.579 150.006C182.579 148.583 181.907 147.429 181.078 147.429C180.249 147.429 179.577 148.583 179.577 150.006C179.577 151.43 180.249 152.584 181.078 152.584Z" fill="#FFB8B8"/>
<path d="M185.551 145.801L198.443 151.652L200.806 146.429C200.399 144.52 199.546 142.734 198.318 141.218L189.445 137.194L185.551 145.801Z" fill="#2F2E41"/>
<path d="M216.538 261.053C219.702 261.053 222.266 258.485 222.266 255.316C222.266 252.147 219.702 249.579 216.538 249.579C213.374 249.579 210.809 252.147 210.809 255.316C210.809 258.485 213.374 261.053 216.538 261.053Z" fill="#5821C4"/>
<path d="M32.6276 295.161C34.6953 295.161 36.3714 293.482 36.3714 291.411C36.3714 289.34 34.6953 287.661 32.6276 287.661C30.56 287.661 28.8838 289.34 28.8838 291.411C28.8838 293.482 30.56 295.161 32.6276 295.161Z" fill="#FF6584"/>
<path d="M51.5424 310.954H50.3967V353.646H51.5424V310.954Z" fill="#3F3D56"/>
<path d="M50.9697 316.991C54.2989 316.991 56.9977 314.288 56.9977 310.953C56.9977 307.619 54.2989 304.916 50.9697 304.916C47.6405 304.916 44.9417 307.619 44.9417 310.953C44.9417 314.288 47.6405 316.991 50.9697 316.991Z" fill="#3F3D56"/>
<path d="M50.9696 337.266C50.9696 337.266 50.1085 318.716 32.455 320.872L50.9696 337.266Z" fill="#3F3D56"/>
</g>
<defs>
<clipPath id="clip0">
<rect width="460" height="354" fill="white"/>
</clipPath>
</defs>
</svg>
